# xmcd CD database file
#
# Track frame offsets:
#	150
#	11835
#	25542
#	39022
#	53795
#	64777
#	78777
#	92280
#	105442
#	119550
#
# Disc length: 1736 seconds
#
# Revision: 3
# Processed by: cddbd v1.4PL0 Copyright (c) Steve Scherf et al.
# Submitted via: CDex 1.40Beta8
#
DISCID=6606c60a
DTITLE=Etta James - At Last
DYEAR=1959
DGENRE=Blues
TTITLE0=Anything To Say You're Mine
TTITLE1=My Dearest Darling
TTITLE2=Trust In Me
TTITLE3=Sunday Kind Of Love
TTITLE4=Tough Mary
TTITLE5=I Just Want To Make Love To You
TTITLE6=At Last
TTITLE7=All I Could Do Was Cry
TTITLE8=Stormy Weather
TTITLE9=Girl Of My Dreams
EXTD=YEAR: 1959 ID3G: 0
EXTT0=
EXTT1=
EXTT2=
EXTT3=
EXTT4=
EXTT5=
EXTT6=
EXTT7=
EXTT8=
EXTT9=
PLAYORDER=
